<svg width="657.9px" height="122px" xmlns="http://www.w3.org/2000/svg" viewBox="-78.94687499999998 14 657.89375 122" style="background: rgba(0, 0, 0, 0)" preserveAspectRatio="xMidYMid"><defs><filter id="editing-neon" x="-100%" y="-100%" width="300%" height="300%"><feFlood flood-color="#069eff" result="flood"></feFlood><feComposite operator="in" in="flood" in2="SourceAlpha" result="color"></feComposite><feFlood flood-color="#069eff" result="flood2"></feFlood><feComposite operator="in" in="flood2" in2="SourceAlpha" result="color2"></feComposite><feMorphology operator="dilate" radius="2" in="color" result="dilate"></feMorphology><feGaussianBlur stdDeviation="6" in="color" result="blur1"></feGaussianBlur><feGaussianBlur stdDeviation="2.5" in="color" result="blur2"></feGaussianBlur><feGaussianBlur stdDeviation="1" in="SourceAlpha" result="blur3"></feGaussianBlur><feGaussianBlur stdDeviation="6" in="dilate" result="blur4"></feGaussianBlur><feConvolveMatrix in="color2" result="conv" order="3,3" divisor="1" kernelMatrix="1 1 1  1 1 1  1 1 1"></feConvolveMatrix><feMerge><feMergeNode in="blur1"></feMergeNode><feMergeNode in="blur2"></feMergeNode><feMergeNode in="blur4"></feMergeNode><feMergeNode in="blur3"></feMergeNode><feMergeNode in="blur3"></feMergeNode><feMergeNode in="blur3"></feMergeNode><feMergeNode in="blur3"></feMergeNode><feMergeNode in="conv"></feMergeNode><feMergeNode in="SourceGraphic"></feMergeNode></feMerge></filter></defs><g filter="url(#editing-neon)"><g transform="matrix(1.1,0,0,1.2,0.9,135.1)"><path d="M 28.4 -27.1 L 14.4 -27.1 L 22.5 -69.4 L 36.6 -69.4 L 28.4 -27.1 Z M 84.1 -25.9 L 84.1 -25.9 L 84.1 -25.9 Q 76.4 -25.9 76.4 -31.9 L 76.4 -31.9 L 76.4 -31.9 Q 76.4 -34.5 77.5 -39.6 L 77.5 -39.6 L 77.5 -39.6 Q 78.6 -44.7 79 -46.7 L 79 -46.7 L 79 -46.7 Q 79.9 -51.4 79.9 -52.9 L 79.9 -52.9 L 79.9 -52.9 Q 79.9 -56.1 77.4 -56.1 L 77.4 -56.1 L 77.4 -56.1 Q 75.8 -56.1 74.3 -53.9 L 74.3 -53.9 L 74.3 -53.9 Q 72.8 -51.7 72.1 -47.3 L 72.1 -47.3 L 68.1 -27.1 L 55.6 -25.9 L 59.1 -43.3 L 59.1 -43.3 Q 59.6 -46.2 60.2 -49.4 L 60.2 -49.4 L 60.2 -49.4 Q 60.7 -52.7 60.7 -53.2 L 60.7 -53.2 L 60.7 -53.2 Q 60.7 -56.1 58.5 -56.1 L 58.5 -56.1 L 58.5 -56.1 Q 57 -56.1 55.4 -54 L 55.4 -54 L 55.4 -54 Q 53.8 -51.8 52.9 -47.3 L 52.9 -47.3 L 49 -27.1 L 36.4 -25.9 L 43.1 -59.8 L 53.6 -61.1 L 52.5 -54.6 L 52.5 -54.6 Q 54.1 -58.1 57.2 -59.6 L 57.2 -59.6 L 57.2 -59.6 Q 60.3 -61.1 65.1 -61.1 L 65.1 -61.1 L 65.1 -61.1 Q 67.8 -61.1 69.6 -59.7 L 69.6 -59.7 L 69.6 -59.7 Q 71.4 -58.4 72 -56.2 L 72 -56.2 L 72 -56.2 Q 73.1 -58.4 75.9 -59.8 L 75.9 -59.8 L 75.9 -59.8 Q 78.7 -61.1 82.1 -61.1 L 82.1 -61.1 L 82.1 -61.1 Q 85.5 -61.1 87.2 -60.3 L 87.2 -60.3 L 87.2 -60.3 Q 88.9 -59.6 89.9 -58.4 L 89.9 -58.4 L 89.9 -58.4 Q 91.6 -56.1 91.6 -52 L 91.6 -52 L 91.6 -52 Q 91.6 -48 89.9 -39.6 L 89.9 -39.6 L 89.9 -39.6 Q 89 -35.5 89 -34 L 89 -34 L 89 -34 Q 89 -32.5 89.9 -31.6 L 89.9 -31.6 L 89.9 -31.6 Q 90.8 -30.7 92 -30.6 L 92 -30.6 L 92 -30.6 Q 91.4 -28.4 89.2 -27.1 L 89.2 -27.1 L 89.2 -27.1 Q 87 -25.9 84.1 -25.9 Z M 99.7 -29.1 L 99.7 -29.1 L 99.7 -29.1 Q 98.2 -30.7 97.6 -33.4 L 97.6 -33.4 L 97.6 -33.4 Q 96.9 -36 96.9 -40.3 L 96.9 -40.3 L 96.9 -40.3 Q 96.9 -44.6 98.4 -48.5 L 98.4 -48.5 L 98.4 -48.5 Q 99.8 -52.4 102.5 -55.2 L 102.5 -55.2 L 102.5 -55.2 Q 108 -61.1 117.1 -61.1 L 117.1 -61.1 L 117.1 -61.1 Q 120.4 -61.1 122.8 -60 L 122.8 -60 L 133.7 -61.1 L 129 -36.1 L 129 -36.1 Q 128.8 -35.3 128.8 -33.9 L 128.8 -33.9 L 128.8 -33.9 Q 128.8 -32.5 129.6 -31.6 L 129.6 -31.6 L 129.6 -31.6 Q 130.5 -30.7 131.8 -30.6 L 131.8 -30.6 L 131.8 -30.6 Q 131.1 -28.4 128.8 -27.1 L 128.8 -27.1 L 128.8 -27.1 Q 126.5 -25.9 123.8 -25.9 L 123.8 -25.9 L 123.8 -25.9 Q 121.2 -25.9 119.5 -26.9 L 119.5 -26.9 L 119.5 -26.9 Q 117.7 -27.8 117.2 -29.5 L 117.2 -29.5 L 117.2 -29.5 Q 116.2 -27.9 114 -26.9 L 114 -26.9 L 114 -26.9 Q 111.8 -25.9 108.9 -25.9 L 108.9 -25.9 L 108.9 -25.9 Q 106 -25.9 103.6 -26.6 L 103.6 -26.6 L 103.6 -26.6 Q 101.2 -27.4 99.7 -29.1 Z M 113.2 -55 L 113.2 -55 L 113.2 -55 Q 112.5 -53.9 111.9 -51.9 L 111.9 -51.9 L 111.9 -51.9 Q 111.2 -50 110.2 -44.8 L 110.2 -44.8 L 110.2 -44.8 Q 109.1 -39.6 109.1 -35.8 L 109.1 -35.8 L 109.1 -35.8 Q 109.1 -32.1 109.7 -31 L 109.7 -31 L 109.7 -31 Q 110.3 -30 111.3 -30 L 111.3 -30 L 111.3 -30 Q 113.3 -30 114.8 -31.9 L 114.8 -31.9 L 114.8 -31.9 Q 116.4 -33.9 116.9 -37.3 L 116.9 -37.3 L 120.3 -56.1 L 120.3 -56.1 Q 119 -57.2 117.4 -57.2 L 117.4 -57.2 L 117.4 -57.2 Q 115.8 -57.2 114.9 -56.7 L 114.9 -56.7 L 114.9 -56.7 Q 114 -56.2 113.2 -55 Z M 141.4 -53.9 L 141.4 -53.9 L 141.4 -53.9 Q 143.6 -57 146.9 -59 L 146.9 -59 L 146.9 -59 Q 150.2 -61.1 154.2 -61.1 L 154.2 -61.1 L 154.2 -61.1 Q 158.3 -61.1 160.2 -59.8 L 160.2 -59.8 L 172.7 -61.1 L 168.4 -36.5 L 168.4 -36.5 Q 166.1 -23.9 161.4 -19 L 161.4 -19 L 161.4 -19 Q 156.9 -14.3 148 -14.3 L 148 -14.3 L 148 -14.3 Q 141.3 -14.3 137.5 -16.5 L 137.5 -16.5 L 137.5 -16.5 Q 133.6 -18.6 133.6 -22.1 L 133.6 -22.1 L 133.6 -22.1 Q 133.6 -24.7 135.6 -26.2 L 135.6 -26.2 L 135.6 -26.2 Q 137.6 -27.7 140.7 -27.7 L 140.7 -27.7 L 140.7 -27.7 Q 143.4 -27.7 145.4 -26.5 L 145.4 -26.5 L 145.4 -26.5 Q 146.6 -25.9 147.2 -25 L 147.2 -25 L 147.2 -25 Q 145.7 -23.7 145.7 -21.6 L 145.7 -21.6 L 145.7 -21.6 Q 145.7 -18.8 148.3 -18.8 L 148.3 -18.8 L 148.3 -18.8 Q 152.6 -18.8 155 -28.9 L 155 -28.9 L 155 -28.9 Q 155.7 -31.7 156.3 -34.4 L 156.3 -34.4 L 156.3 -34.4 Q 153.4 -30.9 146.9 -30.9 L 146.9 -30.9 L 146.9 -30.9 Q 142.3 -30.9 139.7 -33.1 L 139.7 -33.1 L 139.7 -33.1 Q 137.1 -35.3 137.1 -40.4 L 137.1 -40.4 L 137.1 -40.4 Q 137.1 -43.6 138.2 -47.2 L 138.2 -47.2 L 138.2 -47.2 Q 139.3 -50.8 141.4 -53.9 Z M 149.8 -40.2 L 149.8 -40.2 L 149.8 -40.2 Q 149.8 -35.8 152 -35.8 L 152 -35.8 L 152 -35.8 Q 153.5 -35.8 155 -37.5 L 155 -37.5 L 155 -37.5 Q 156.2 -38.9 156.6 -40.8 L 156.6 -40.8 L 159.9 -57.3 L 159.9 -57.3 Q 159.6 -57.4 159.2 -57.5 L 159.2 -57.5 L 159.2 -57.5 Q 158.6 -57.7 157.8 -57.7 L 157.8 -57.7 L 157.8 -57.7 Q 153.9 -57.7 151.6 -51.3 L 151.6 -51.3 L 151.6 -51.3 Q 149.8 -46.3 149.8 -40.2 Z M 201.2 -38 L 201.2 -38 L 201.2 -38 Q 202.8 -36.9 202.8 -34.5 L 202.8 -34.5 L 202.8 -34.5 Q 202.8 -32.1 201.5 -30.5 L 201.5 -30.5 L 201.5 -30.5 Q 200.3 -29 198.3 -28 L 198.3 -28 L 198.3 -28 Q 194.2 -25.9 189.8 -25.9 L 189.8 -25.9 L 189.8 -25.9 Q 185.4 -25.9 182.8 -26.8 L 182.8 -26.8 L 182.8 -26.8 Q 180.2 -27.8 178.5 -29.6 L 178.5 -29.6 L 178.5 -29.6 Q 175.1 -33 175.1 -39.2 L 175.1 -39.2 L 175.1 -39.2 Q 175.1 -48.8 180.4 -54.7 L 180.4 -54.7 L 180.4 -54.7 Q 186 -61.1 195.8 -61.1 L 195.8 -61.1 L 195.8 -61.1 Q 201.9 -61.1 204.9 -58.5 L 204.9 -58.5 L 204.9 -58.5 Q 207.1 -56.6 207.1 -53.4 L 207.1 -53.4 L 207.1 -53.4 Q 207.1 -42.2 187.6 -42.2 L 187.6 -42.2 L 187.6 -42.2 Q 187.4 -40.5 187.4 -39.1 L 187.4 -39.1 L 187.4 -39.1 Q 187.4 -36.2 188.7 -35 L 188.7 -35 L 188.7 -35 Q 190 -33.9 192.4 -33.9 L 192.4 -33.9 L 192.4 -33.9 Q 194.9 -33.9 197.5 -35 L 197.5 -35 L 197.5 -35 Q 200.1 -36.2 201.2 -38 Z M 188.1 -44.9 L 188.1 -44.9 L 188.1 -44.9 Q 192.6 -44.9 195.3 -47.8 L 195.3 -47.8 L 195.3 -47.8 Q 197.9 -50.4 197.9 -54.7 L 197.9 -54.7 L 197.9 -54.7 Q 197.9 -56.2 197.3 -57 L 197.3 -57 L 197.3 -57 Q 196.8 -57.8 195.7 -57.8 L 195.7 -57.8 L 195.7 -57.8 Q 194.6 -57.8 193.7 -57.4 L 193.7 -57.4 L 193.7 -57.4 Q 192.8 -57 191.8 -55.6 L 191.8 -55.6 L 191.8 -55.6 Q 189.4 -52.4 188.1 -44.9 Z M 228.4 -49.6 L 228.4 -49.6 L 228.4 -49.6 Q 229.3 -52 229.3 -54 L 229.3 -54 L 229.3 -54 Q 229.3 -57.8 226.2 -57.8 L 226.2 -57.8 L 226.2 -57.8 Q 224.6 -57.8 223.3 -56.4 L 223.3 -56.4 L 223.3 -56.4 Q 222 -54.9 222 -53.1 L 222 -53.1 L 222 -53.1 Q 222 -51.8 223 -50.8 L 223 -50.8 L 223 -50.8 Q 224.5 -49.4 228.3 -47.1 L 228.3 -47.1 L 228.3 -47.1 Q 232.1 -44.8 233.5 -42.9 L 233.5 -42.9 L 233.5 -42.9 Q 234.9 -41 234.9 -38.4 L 234.9 -38.4 L 234.9 -38.4 Q 234.9 -35.8 233.7 -33.5 L 233.7 -33.5 L 233.7 -33.5 Q 232.4 -31.1 230.2 -29.4 L 230.2 -29.4 L 230.2 -29.4 Q 225.4 -25.9 217.7 -25.9 L 217.7 -25.9 L 217.7 -25.9 Q 213.6 -25.9 210.4 -28 L 210.4 -28 L 210.4 -28 Q 207.2 -30.2 207.2 -32.6 L 207.2 -32.6 L 207.2 -32.6 Q 207.2 -35.1 209 -36.6 L 209 -36.6 L 209 -36.6 Q 210.8 -38.1 213.5 -38.1 L 213.5 -38.1 L 213.5 -38.1 Q 216.2 -38.1 217.9 -37.1 L 217.9 -37.1 L 217.9 -37.1 Q 217 -35 217 -33.5 L 217 -33.5 L 217 -33.5 Q 217 -29.3 220.6 -29.3 L 220.6 -29.3 L 220.6 -29.3 Q 222.1 -29.3 223.2 -30.3 L 223.2 -30.3 L 223.2 -30.3 Q 224.2 -31.2 224.2 -32.9 L 224.2 -32.9 L 224.2 -32.9 Q 224.2 -36.2 218.7 -39.6 L 218.7 -39.6 L 218.7 -39.6 Q 214.2 -42.6 213.2 -43.7 L 213.2 -43.7 L 213.2 -43.7 Q 211.5 -45.8 211.5 -48.3 L 211.5 -48.3 L 211.5 -48.3 Q 211.5 -50.9 212.7 -53.3 L 212.7 -53.3 L 212.7 -53.3 Q 213.9 -55.8 216.1 -57.5 L 216.1 -57.5 L 216.1 -57.5 Q 220.8 -61.1 228.9 -61.1 L 228.9 -61.1 L 228.9 -61.1 Q 233.1 -61.1 235.6 -59.4 L 235.6 -59.4 L 235.6 -59.4 Q 238 -57.7 238 -54.9 L 238 -54.9 L 238 -54.9 Q 238 -52.1 236.3 -50.5 L 236.3 -50.5 L 236.3 -50.5 Q 234.6 -48.9 231.6 -48.9 L 231.6 -48.9 L 231.6 -48.9 Q 229.4 -48.9 228.4 -49.6 Z M 279.5 -47.8 L 292.4 -48.9 L 292.4 -48.9 Q 287.8 -38.8 287.8 -27.1 L 287.8 -27.1 L 287.8 -27.1 Q 286.1 -25.9 283.6 -25.9 L 283.6 -25.9 L 283.6 -25.9 Q 281 -25.9 279.4 -27 L 279.4 -27 L 279.4 -27 Q 277.8 -28.2 277.5 -29.4 L 277.5 -29.4 L 277.5 -29.4 Q 275.9 -27.8 273.3 -26.8 L 273.3 -26.8 L 273.3 -26.8 Q 270.7 -25.9 268 -25.9 L 268 -25.9 L 268 -25.9 Q 265.2 -25.9 262.8 -26.8 L 262.8 -26.8 L 262.8 -26.8 Q 260.4 -27.7 258.6 -29.6 L 258.6 -29.6 L 258.6 -29.6 Q 254.5 -34 254.5 -42.2 L 254.5 -42.2 L 254.5 -42.2 Q 254.5 -55 261.3 -62.7 L 261.3 -62.7 L 261.3 -62.7 Q 268.4 -70.7 280.8 -70.7 L 280.8 -70.7 L 280.8 -70.7 Q 289.5 -70.7 292.5 -66.2 L 292.5 -66.2 L 292.5 -66.2 Q 293.5 -64.8 293.5 -63.1 L 293.5 -63.1 L 293.5 -63.1 Q 293.5 -61.4 292.8 -59.9 L 292.8 -59.9 L 292.8 -59.9 Q 292 -58.5 290.9 -57.4 L 290.9 -57.4 L 290.9 -57.4 Q 288.1 -54.8 284.7 -54.8 L 284.7 -54.8 L 284.7 -54.8 Q 283.4 -54.8 282.1 -55.2 L 282.1 -55.2 L 282.1 -55.2 Q 282.4 -57.2 282.4 -59.4 L 282.4 -59.4 L 282.4 -59.4 Q 282.4 -61.6 282.2 -62.7 L 282.2 -62.7 L 282.2 -62.7 Q 282 -63.7 281.7 -64.5 L 281.7 -64.5 L 281.7 -64.5 Q 280.8 -66.2 279 -66.2 L 279 -66.2 L 279 -66.2 Q 277.2 -66.2 275.2 -64.3 L 275.2 -64.3 L 275.2 -64.3 Q 273.2 -62.3 271.6 -59.1 L 271.6 -59.1 L 271.6 -59.1 Q 268 -52 268 -43.3 L 268 -43.3 L 268 -43.3 Q 268 -39.4 269.6 -36.6 L 269.6 -36.6 L 269.6 -36.6 Q 271.2 -33.5 274.2 -33.5 L 274.2 -33.5 L 274.2 -33.5 Q 275.2 -33.5 276.1 -34 L 276.1 -34 L 276.1 -34 Q 277.1 -34.5 277.4 -34.9 L 277.4 -34.9 L 279.5 -47.8 Z M 298.3 -29.1 L 298.3 -29.1 L 298.3 -29.1 Q 296.8 -30.7 296.2 -33.4 L 296.2 -33.4 L 296.2 -33.4 Q 295.5 -36 295.5 -40.3 L 295.5 -40.3 L 295.5 -40.3 Q 295.5 -44.6 297 -48.5 L 297 -48.5 L 297 -48.5 Q 298.4 -52.4 301.1 -55.2 L 301.1 -55.2 L 301.1 -55.2 Q 306.6 -61.1 315.7 -61.1 L 315.7 -61.1 L 315.7 -61.1 Q 319 -61.1 321.3 -60 L 321.3 -60 L 332.3 -61.1 L 327.6 -36.1 L 327.6 -36.1 Q 327.4 -35.3 327.4 -33.9 L 327.4 -33.9 L 327.4 -33.9 Q 327.4 -32.5 328.2 -31.6 L 328.2 -31.6 L 328.2 -31.6 Q 329.1 -30.7 330.4 -30.6 L 330.4 -30.6 L 330.4 -30.6 Q 329.7 -28.4 327.4 -27.1 L 327.4 -27.1 L 327.4 -27.1 Q 325.1 -25.9 322.4 -25.9 L 322.4 -25.9 L 322.4 -25.9 Q 319.8 -25.9 318 -26.9 L 318 -26.9 L 318 -26.9 Q 316.3 -27.8 315.8 -29.5 L 315.8 -29.5 L 315.8 -29.5 Q 314.8 -27.9 312.6 -26.9 L 312.6 -26.9 L 312.6 -26.9 Q 310.4 -25.9 307.5 -25.9 L 307.5 -25.9 L 307.5 -25.9 Q 304.6 -25.9 302.2 -26.6 L 302.2 -26.6 L 302.2 -26.6 Q 299.8 -27.4 298.3 -29.1 Z M 311.8 -55 L 311.8 -55 L 311.8 -55 Q 311.1 -53.9 310.5 -51.9 L 310.5 -51.9 L 310.5 -51.9 Q 309.8 -50 308.8 -44.8 L 308.8 -44.8 L 308.8 -44.8 Q 307.7 -39.6 307.7 -35.8 L 307.7 -35.8 L 307.7 -35.8 Q 307.7 -32.1 308.3 -31 L 308.3 -31 L 308.3 -31 Q 308.9 -30 309.9 -30 L 309.9 -30 L 309.9 -30 Q 311.9 -30 313.4 -31.9 L 313.4 -31.9 L 313.4 -31.9 Q 314.9 -33.9 315.5 -37.3 L 315.5 -37.3 L 318.9 -56.1 L 318.9 -56.1 Q 317.6 -57.2 316 -57.2 L 316 -57.2 L 316 -57.2 Q 314.4 -57.2 313.5 -56.7 L 313.5 -56.7 L 313.5 -56.7 Q 312.6 -56.2 311.8 -55 Z M 351 -30.7 L 351 -30.7 L 351 -30.7 Q 349.1 -25.9 342.7 -25.9 L 342.7 -25.9 L 342.7 -25.9 Q 339.5 -25.9 337.5 -28.1 L 337.5 -28.1 L 337.5 -28.1 Q 335.8 -30 335.8 -32.1 L 335.8 -32.1 L 335.8 -32.1 Q 335.8 -36.9 338 -47.4 L 338 -47.4 L 342.7 -71.9 L 355.7 -73.2 L 349.5 -40.8 L 349.5 -40.8 Q 348.4 -36.1 348.4 -34.4 L 348.4 -34.4 L 348.4 -34.4 Q 348.4 -30.8 351 -30.7 Z M 371.8 -30.7 L 371.8 -30.7 L 371.8 -30.7 Q 369.8 -25.9 363.5 -25.9 L 363.5 -25.9 L 363.5 -25.9 Q 360.3 -25.9 358.2 -28.1 L 358.2 -28.1 L 358.2 -28.1 Q 356.5 -30 356.5 -32.1 L 356.5 -32.1 L 356.5 -32.1 Q 356.5 -36.9 358.8 -47.4 L 358.8 -47.4 L 363.5 -71.9 L 376.4 -73.2 L 370.2 -40.8 L 370.2 -40.8 Q 369.2 -36.1 369.2 -34.4 L 369.2 -34.4 L 369.2 -34.4 Q 369.2 -30.8 371.8 -30.7 Z M 403.1 -38 L 403.1 -38 L 403.1 -38 Q 404.7 -36.9 404.7 -34.5 L 404.7 -34.5 L 404.7 -34.5 Q 404.7 -32.1 403.5 -30.5 L 403.5 -30.5 L 403.5 -30.5 Q 402.3 -29 400.3 -28 L 400.3 -28 L 400.3 -28 Q 396.2 -25.9 391.8 -25.9 L 391.8 -25.9 L 391.8 -25.9 Q 387.4 -25.9 384.8 -26.8 L 384.8 -26.8 L 384.8 -26.8 Q 382.2 -27.8 380.5 -29.6 L 380.5 -29.6 L 380.5 -29.6 Q 377.1 -33 377.1 -39.2 L 377.1 -39.2 L 377.1 -39.2 Q 377.1 -48.8 382.3 -54.7 L 382.3 -54.7 L 382.3 -54.7 Q 388 -61.1 397.8 -61.1 L 397.8 -61.1 L 397.8 -61.1 Q 403.8 -61.1 406.8 -58.5 L 406.8 -58.5 L 406.8 -58.5 Q 409.1 -56.6 409.1 -53.4 L 409.1 -53.4 L 409.1 -53.4 Q 409.1 -42.2 389.6 -42.2 L 389.6 -42.2 L 389.6 -42.2 Q 389.4 -40.5 389.4 -39.1 L 389.4 -39.1 L 389.4 -39.1 Q 389.4 -36.2 390.7 -35 L 390.7 -35 L 390.7 -35 Q 392 -33.9 394.4 -33.9 L 394.4 -33.9 L 394.4 -33.9 Q 396.9 -33.9 399.5 -35 L 399.5 -35 L 399.5 -35 Q 402 -36.2 403.1 -38 Z M 390.1 -44.9 L 390.1 -44.9 L 390.1 -44.9 Q 394.6 -44.9 397.2 -47.8 L 397.2 -47.8 L 397.2 -47.8 Q 399.9 -50.4 399.9 -54.7 L 399.9 -54.7 L 399.9 -54.7 Q 399.9 -56.2 399.3 -57 L 399.3 -57 L 399.3 -57 Q 398.8 -57.8 397.7 -57.8 L 397.7 -57.8 L 397.7 -57.8 Q 396.6 -57.8 395.7 -57.4 L 395.7 -57.4 L 395.7 -57.4 Q 394.8 -57 393.8 -55.6 L 393.8 -55.6 L 393.8 -55.6 Q 391.4 -52.4 390.1 -44.9 Z M 431.3 -45.1 L 431.3 -45.1 L 431.3 -45.1 Q 433.6 -49.2 433.6 -53.4 L 433.6 -53.4 L 433.6 -53.4 Q 433.6 -56.1 431.6 -56.1 L 431.6 -56.1 L 431.6 -56.1 Q 430.1 -56.1 428.5 -53.5 L 428.5 -53.5 L 428.5 -53.5 Q 426.8 -50.9 426.3 -47.5 L 426.3 -47.5 L 423 -27.1 L 409.7 -25.9 L 416.3 -59.8 L 426.8 -61.1 L 425.7 -54.6 L 425.7 -54.6 Q 428.8 -61.1 435.8 -61.1 L 435.8 -61.1 L 435.8 -61.1 Q 439.6 -61.1 441.6 -59.1 L 441.6 -59.1 L 441.6 -59.1 Q 443.6 -57.2 443.6 -53.3 L 443.6 -53.3 L 443.6 -53.3 Q 443.6 -49.4 441 -46.9 L 441 -46.9 L 441 -46.9 Q 438.4 -44.4 434 -44.4 L 434 -44.4 L 434 -44.4 Q 432.1 -44.4 431.3 -45.1 Z M 465 -34.4 L 465 -34.4 L 465 -34.4 Q 461.6 -30.9 455.6 -30.9 L 455.6 -30.9 L 455.6 -30.9 Q 447.9 -30.9 446.3 -36.5 L 446.3 -36.5 L 446.3 -36.5 Q 445.8 -38.2 445.8 -40 L 445.8 -40 L 445.8 -40 Q 445.8 -41.9 446.2 -43.8 L 446.2 -43.8 L 449.2 -59.8 L 462.2 -61.1 L 458.7 -42.4 L 458.7 -42.4 Q 458.6 -41.6 458.4 -40.7 L 458.4 -40.7 L 458.4 -40.7 Q 458.2 -39.8 458.2 -38.9 L 458.2 -38.9 L 458.2 -38.9 Q 458.2 -38 458.5 -37.4 L 458.5 -37.4 L 458.5 -37.4 Q 458.8 -36.7 459.3 -36.4 L 459.3 -36.4 L 459.3 -36.4 Q 460 -35.8 461.4 -35.8 L 461.4 -35.8 L 461.4 -35.8 Q 462.8 -35.8 464 -37.5 L 464 -37.5 L 464 -37.5 Q 465.2 -39.2 465.7 -42.1 L 465.7 -42.1 L 469.2 -59.8 L 481.9 -61.1 L 477.1 -35.9 L 477.1 -35.9 Q 474.7 -23.6 469.8 -18.8 L 469.8 -18.8 L 469.8 -18.8 Q 467.3 -16.3 464.1 -15.3 L 464.1 -15.3 L 464.1 -15.3 Q 460.9 -14.3 456.7 -14.3 L 456.7 -14.3 L 456.7 -14.3 Q 450 -14.3 446.1 -16.4 L 446.1 -16.4 L 446.1 -16.4 Q 442.3 -18.5 442.3 -22 L 442.3 -22 L 442.3 -22 Q 442.3 -24.6 444.3 -26.2 L 444.3 -26.2 L 444.3 -26.2 Q 446.3 -27.7 449.3 -27.7 L 449.3 -27.7 L 449.3 -27.7 Q 452 -27.7 454.1 -26.5 L 454.1 -26.5 L 454.1 -26.5 Q 455.3 -25.8 455.9 -24.9 L 455.9 -24.9 L 455.9 -24.9 Q 454.4 -23.6 454.4 -21.5 L 454.4 -21.5 L 454.4 -21.5 Q 454.4 -18.7 457 -18.7 L 457 -18.7 L 457 -18.7 Q 461.2 -18.7 463.6 -28.4 L 463.6 -28.4 L 463.6 -28.4 Q 464.3 -31.3 465 -34.4 Z" fill="none" stroke="#dbffff" stroke-width="1"></path></g></g><style>text {
  font-size: 64px;
  font-family: Arial Black;
  dominant-baseline: central;
  text-anchor: middle;
}</style></svg>